<svg xmlns="http://www.w3.org/2000/svg" xmlns:xlink="http://www.w3.org/1999/xlink" width="22" height="24" viewBox="0 0 22 24">
    <defs>
    <g  fill="currentColor" fill-rule="nonzero">
        <path id="u9ytu5fbha" d="M10.28 9.22L12 10.939l1.72-1.72c.293-.292.767-.292 1.06 0 .293.294.293.768 0 1.061L13.061 12l1.72 1.72c.292.293.292.767 0 1.06-.294.293-.768.293-1.061 0L12 13.061l-1.72 1.72c-.293.292-.767.292-1.06 0-.293-.294-.293-.768 0-1.061L10.939 12l-1.72-1.72c-.292-.293-.292-.767 0-1.06.294-.293.768-.293 1.061 0z"/>
        </g>
    </defs>
    <g fill="none" fill-rule="evenodd">
        <g>
            <g>
                <g>
                    <g>
                        <g transform="translate(-524 -1305) translate(127 1133) translate(388 165) translate(5 7) translate(2.905)">
                            <path d="M0 0H24V24H0z"/>
                            <rect width="16" height="16" x="4" y="4" stroke="#424242" stroke-width="2" rx="5"/>
                            <use fill="#424242" transform="rotate(-45 12 12)" xlink:href="#u9ytu5fbha"/>
                        </g>
                    </g>
                </g>
            </g>
        </g>
    </g>
</svg>
