<svg xmlns="http://www.w3.org/2000/svg" width="16" height="16" viewBox="0 0 16 16">
    <g fill="none" fill-rule="evenodd">
        <g fill="currentColor" fill-rule="nonzero">
            <g>
                <g>
                    <g>
                        <g>
                            <g>
                                <path d="M8.363 3.242c.338-.33.88-.321 1.208.017l4.303 4.43c.168.173.168.45 0 .623L9.57 12.74l-.017.017c-.339.33-.88.321-1.209-.017l-.008-.008c-.337-.348-.337-.9 0-1.247l2.545-2.627H2.859C2.385 8.86 2 8.476 2 8c0-.438.328-.8.751-.853l.108-.007h8.023L8.336 4.514c-.308-.318-.334-.809-.076-1.156l.077-.09.008-.009.018-.017z" transform="translate(-1118 -1861) translate(0 1476) translate(108 127) translate(624) translate(188 246) translate(198 12)"/>
                            </g>
                        </g>
                    </g>
                </g>
            </g>
        </g>
    </g>
</svg>
