<svg xmlns="http://www.w3.org/2000/svg" width="24" height="24" viewBox="0 0 24 24">
    <g fill="none" fill-rule="evenodd">
        <g>
            <g>
                <g>
                    <g>
                        <g>
                            <path d="M0 0H24V24H0z" transform="translate(-678 -1067) translate(400 128) translate(0 606) translate(24 302) translate(254 31)"/>
                            <path fill="#3D7786" d="M15.726 3c.42 0 .745.341.745.739v.701h1.147C19.47 4.44 21 5.937 21 7.794v9.852C21 19.503 19.49 21 17.618 21H6.382C4.53 21 3 19.503 3 17.646V7.794C3 5.937 4.51 4.44 6.382 4.44H7.53v-.701c0-.417.325-.739.745-.739s.745.341.745.739v.701h5.962v-.701c0-.417.325-.739.745-.739zm3.784 7.219H4.47v7.408c0 1.042.86 1.895 1.911 1.895h11.236c1.05 0 1.892-.834 1.892-1.895V10.22zM8.175 15.676c.592 0 1.07.473 1.05 1.042 0 .53-.399.978-.934 1.036l-.116.006h-.822c-.573 0-1.051-.455-1.051-1.042 0-.53.4-.979.934-1.036l.117-.006h.822zm4.28 0c.573 0 1.05.473 1.05 1.042 0 .53-.399.978-.934 1.036l-.116.006h-.822c-.573 0-1.05-.455-1.05-1.042 0-.53.399-.979.934-1.036l.116-.006h.822zm4.26 0c.593 0 1.071.473 1.052 1.042 0 .53-.4.978-.934 1.036l-.117.006h-.822c-.573 0-1.05-.455-1.05-1.042 0-.53.399-.979.934-1.036l.116-.006h.822zm-8.54-3.733c.592 0 1.07.474 1.05 1.042 0 .53-.399.979-.934 1.036l-.116.006h-.822c-.573 0-1.051-.454-1.051-1.042 0-.53.4-.978.934-1.036l.117-.006h.822zm4.28 0c.573 0 1.05.474 1.05 1.042 0 .53-.399.979-.934 1.036l-.116.006h-.822c-.573 0-1.05-.454-1.05-1.042 0-.53.399-.978.934-1.036l.116-.006h.822zm4.26 0c.593 0 1.071.474 1.052 1.042 0 .53-.4.979-.934 1.036l-.117.006h-.822c-.573 0-1.05-.454-1.05-1.042 0-.53.399-.978.934-1.036l.116-.006h.822zM7.53 5.9H6.382c-1.05 0-1.892.853-1.892 1.895v.966h15.02v-.966c0-1.042-.841-1.895-1.892-1.895H16.47V6.6c0 .417-.325.739-.745.739s-.745-.341-.745-.739v-.701H9.019V6.6c0 .417-.325.739-.745.739s-.745-.341-.745-.739v-.701z" transform="translate(-678 -1067) translate(400 128) translate(0 606) translate(24 302) translate(254 31)"/>
                        </g>
                    </g>
                </g>
            </g>
        </g>
    </g>
</svg>
