<svg xmlns="http://www.w3.org/2000/svg" width="28" height="28" viewBox="0 0 28 28">
    <g fill="none" fill-rule="evenodd">
        <g>
            <g>
                <g transform="translate(-874 -196) translate(188 178) translate(686 18)">
                    <rect width="28" height="28" fill="#3D7786" rx="14"/>
                    <g fill="#FFF">
                        <path d="M14.853 15.903l-3.356-3.56c-.182-.193-.182-.493 0-.686l3.356-3.56c.363-.386.363-.988-.001-1.373l-.018-.019c-.347-.368-.927-.384-1.295-.037l-.037.037-4.678 4.952c-.182.192-.182.494 0 .686l4.678 4.952c.347.368.927.384 1.295.037l.037-.037.018-.019c.364-.385.364-.987 0-1.373z" transform="translate(2 2) rotate(-90 12 12)"/>
                    </g>
                </g>
            </g>
        </g>
    </g>
</svg>
