<svg xmlns="http://www.w3.org/2000/svg" width="48" height="48" viewBox="0 0 48 48">
    <g fill="none" fill-rule="evenodd">
        <g fill="#3D7786">
            <g>
                <path d="M29.353 32.493l-7.683-8.15c-.181-.193-.181-.493 0-.686l7.683-8.15c.363-.386.363-.988-.001-1.373l-1.289-1.364c-.38-.402-1.012-.42-1.414-.04l-.04.04-10.285 10.887c-.182.192-.182.494 0 .686L26.61 35.23c.38.402 1.012.42 1.414.04.014-.012.027-.026.04-.04l1.289-1.364c.364-.385.364-.987 0-1.373z" transform="translate(-17 -104) translate(17 104)"/>
            </g>
        </g>
    </g>
</svg>
