<svg xmlns="http://www.w3.org/2000/svg" width="32" height="32" viewBox="0 0 32 32">
    <g fill="none" fill-rule="evenodd">
        <g>
            <g>
                <g>
                    <g>
                        <path fill="#FFF" d="M20.225 4.178l.081.172.682-.132c1.406-.24 2.753.599 3.155 1.906l.045.166.034.164L27.4 23.71c.145.728-.022 1.478-.445 2.093-.367.533-.91.916-1.588 1.123l-.231.063-14.147 2.59c-.06.016-.123.026-.19.033l-.102.008c-.07.004-.122.005-.227.005-1.263 0-2.364-.865-2.683-2.102l-.039-.171-3.176-17.257c-.146-.728.022-1.477.457-2.109.395-.527.94-.907 1.568-1.087l.212-.053.61-.108v-.02c.059-1.148.82-2.159 1.92-2.507l.175-.049.162-.034 7.569-1.404c1.22-.25 2.43.385 2.98 1.454zm1.264 1.981l-.12.023-.017.001-.001-.003-.663.128.001.044c-.01 1.27-.873 2.401-2.112 2.697l-.164.034-7.547 1.4c-.061.014-.124.025-.19.032l-.102.008c-.07.004-.122.005-.227.005-1.09 0-2.06-.645-2.515-1.67l-.064-.156-.592.105c-.154.03-.302.112-.418.235l-.08.101c-.092.119-.137.263-.13.424l.013.125L9.77 26.958c.066.365.416.631.784.617l.1-.011 14.17-2.596c.193-.038.376-.156.477-.306.103-.155.148-.315.128-.498L22.232 6.795c-.068-.34-.33-.584-.653-.629l-.09-.007zm-3.079 7.666c.314-.454.937-.568 1.391-.254l.035.024c.453.313.568.933.257 1.388l-4.71 6.88c-.312.455-.932.572-1.388.263l-2.168-1.475-.003-.002c-.454-.31-.57-.931-.259-1.385l.006-.008c.31-.452.927-.57 1.382-.265l.905.608c.228.153.536.093.691-.133l3.859-5.637zm-.649-9.163l-.12.023c-.009.001-.015.002-.019.001L10.04 6.09c-.364.066-.631.416-.618.778l.011.099.185.925c.066.365.416.632.783.617l.1-.01 7.554-1.401.098-.023c.33-.096.557-.425.546-.76l-.01-.1-.184-.916c-.068-.34-.329-.584-.652-.63l-.091-.006z" transform="translate(-912 -679) translate(904 154) translate(0 10) translate(8 515)"/>
                    </g>
                </g>
            </g>
        </g>
    </g>
</svg>
