<svg xmlns="http://www.w3.org/2000/svg" width="32" height="32" viewBox="0 0 32 32">
    <g fill="none" fill-rule="evenodd">
        <g>
            <g>
                <g>
                    <g>
                        <path fill="#FFF" d="M21 4c1.473 0 3 1.527 3 3.005v.999h2.344c1.418 0 2.565 1.115 2.65 2.514l.006.169V26.51c0 1.632-1.99 2.476-3.146 1.308l-3.559-3.624c-.187-.186-.193-.19-.295-.19H12c-1.47 0-3-1.523-3-3v-1.136l-2.98 2.787c-1.13.983-2.905.237-3.015-1.253L3 21.255V7.005C3 5.527 4.527 4 6 4zm5.344 6.005L24 10.004v6c0 1.563-1.444 3-3 3H11v2c0 .344.545.912.918.992l.082.009h10c.706 0 1.176.245 1.713.779L27 26.13V10.687c0-.347-.244-.627-.56-.675l-.096-.007zM21 6H6c-.369 0-1 .631-1 1.005V20.87l3.243-3.032c.496-.5.955-.78 1.568-.827l.189-.007h11c.37 0 1-.628 1-1v-9C22 6.63 21.369 6 21 6zm-7.9 7.505c.497 0 .9.403.9.9s-.403.9-.9.9H7.9c-.497 0-.9-.403-.9-.9s.403-.9.9-.9h5.2zm5-3c.497 0 .9.403.9.9s-.403.9-.9.9H7.9c-.497 0-.9-.403-.9-.9s.403-.9.9-.9h10.2zm0-3c.497 0 .9.403.9.9s-.403.9-.9.9H7.9c-.497 0-.9-.403-.9-.9s.403-.9.9-.9h10.2z" transform="translate(-911 -596) translate(904 154) translate(0 10) translate(7 432)"/>
                    </g>
                </g>
            </g>
        </g>
    </g>
</svg>
