<svg xmlns="http://www.w3.org/2000/svg" width="45" height="48" viewBox="0 0 45 48">
    <g fill="none" fill-rule="evenodd">
        <g fill="currentColor" fill-rule="nonzero">
            <g>
                <g>
                    <path d="M340.419 45.767h-40.186v-3.093c0-2.352 1.488-4.465 3.703-5.256l11.183-3.995c.445-.158.741-.579.741-1.05v-4.237c1.309.564 2.715.887 4.187.887 1.68 0 3.282-.403 4.744-1.13v4.48c0 .471.297.892.74 1.05l11.183 3.995c2.215.792 3.705 2.904 3.705 5.256v3.093zM310 14.512c0-.181.016-.358.022-.536 1.047.351 2.131.536 3.327.536 3.066 0 6.43-1.46 8.338-3.462 1.779 2.478 3.876 3.653 6.543 3.653.59 0 1.213-.066 1.862-.18-.005 6.764-4.509 12.268-10.045 12.268-5.54 0-10.047-5.51-10.047-12.28zm10.047-12.28c4.918 0 9.016 4.348 9.873 10.063-.013.002-.025.002-.038.005-3.244.624-5.252-.432-7.156-3.766-.202-.355-.622-.556-.99-.563-.41.007-.78.238-.968.6-1.033 1.974-4.5 3.708-7.42 3.708-1.133 0-2.109-.189-3.071-.582 1.046-5.417 5.023-9.464 9.77-9.464zm17.418 33.084l-10.442-3.73v-5.147c3.2-2.622 5.303-6.988 5.303-11.927 0-8.002-5.51-14.512-12.28-14.512s-12.279 6.51-12.279 14.512c0 5.22 2.351 9.79 5.86 12.348v4.725l-10.442 3.73c-3.102 1.11-5.185 4.066-5.185 7.36v4.209c0 .617.499 1.116 1.116 1.116h42.419c.616 0 1.116-.499 1.116-1.116v-4.21c0-3.292-2.084-6.249-5.186-7.358z" transform="translate(-818 -3700) translate(0 3488) translate(520 212)"/>
                </g>
            </g>
        </g>
    </g>
</svg>
