<svg xmlns="http://www.w3.org/2000/svg" width="26" height="28" viewBox="0 0 26 28">
    <g fill="none" fill-rule="evenodd">
        <g fill="currentColor" fill-rule="nonzero">
            <g>
                <g>
                    <path d="M8.383 104.193c2.417 0 4.382 1.975 4.382 4.403 0 2.429-1.965 4.404-4.382 4.404S4 111.025 4 108.596c0-2.428 1.966-4.403 4.383-4.403zm0 1.412c-1.646 0-2.983 1.344-2.983 2.997 0 1.654 1.337 2.997 2.983 2.997 1.645 0 2.982-1.343 2.982-2.997 0-1.653-1.337-2.997-2.982-2.997zm20.233 2.291c.388 0 .703.31.703.706 0 .39-.315.706-.703.706H14.999c-.388 0-.702-.315-.702-.706 0-.39.314-.706.702-.706zM8.383 94.795c2.417 0 4.382 1.975 4.382 4.403 0 2.429-1.965 4.404-4.382 4.404S4 101.627 4 99.198c0-2.428 1.966-4.403 4.383-4.403zm0 1.406c-1.646 0-2.983 1.344-2.983 2.997 0 1.654 1.337 2.997 2.983 2.997 1.645 0 2.982-1.343 2.982-2.997 0-1.653-1.337-2.997-2.982-2.997zm20.233 2.29c.388 0 .703.317.703.707 0 .39-.315.706-.703.706H14.999c-.388 0-.702-.316-.702-.706 0-.39.314-.706.702-.706zM13.068 85.208c.274-.276.714-.276.989 0 .268.275.268.717-.006.993l-5.08 5.075c-.131.132-.308.207-.491.207l-.112-.009c-.146-.023-.28-.092-.385-.198l-1.669-1.688c-.274-.275-.274-.717.006-.993.274-.27.714-.27.988.006l1.177 1.188 2.052-2.05c-.56-.585-1.337-.93-2.154-.93-1.646 0-2.983 1.344-2.983 2.997 0 1.654 1.337 2.997 2.983 2.997 1.302 0 2.48-.878 2.857-2.13.114-.373.502-.58.874-.47.371.114.583.505.468.878-.565 1.872-2.25 3.129-4.2 3.129C5.967 94.209 4 92.234 4 89.805c0-2.428 1.966-4.403 4.383-4.403 1.194 0 2.33.488 3.148 1.338zm15.548 3.898c.388 0 .703.316.703.706 0 .39-.315.706-.703.706H14.999c-.388 0-.702-.315-.702-.706 0-.39.314-.706.702-.706z" transform="translate(-564 -1159) translate(0 728) translate(560 346)"/>
                </g>
            </g>
        </g>
    </g>
</svg>
