<svg xmlns="http://www.w3.org/2000/svg" width="24" height="24" viewBox="0 0 24 24">
    <g fill="none" fill-rule="evenodd">
        <g fill="currentColor" fill-rule="nonzero">
            <g>
                <g>
                    <path d="M3.57 191.907h3.752c.866 0 1.57-.706 1.57-1.574v-3.76c0-.867-.704-1.573-1.57-1.573H3.57c-.866 0-1.57.706-1.57 1.574v3.76c0 .867.704 1.573 1.57 1.573zm3.752 10.186c.866 0 1.57.706 1.57 1.574v3.76c0 .867-.704 1.573-1.57 1.573H3.57c-.866 0-1.57-.706-1.57-1.574v-3.76c0-.867.704-1.573 1.57-1.573zm0 1.201H3.57c-.205 0-.371.167-.371.373v3.76c0 .205.166.372.371.372h3.752c.206 0 .372-.167.372-.373v-3.76c0-.205-.166-.372-.372-.372zm18.047 2.96c.333 0 .602.27.602.604 0 .328-.264.598-.597.603H11.896c-.332 0-.601-.27-.601-.603 0-.333.269-.603.601-.603zm.005-2.617c.333 0 .597.27.602.603 0 .334-.27.603-.602.603H11.896c-.332 0-.601-.27-.601-.603 0-.333.269-.603.601-.603zM7.322 193.55c.866 0 1.57.706 1.57 1.574v3.76c0 .867-.704 1.573-1.57 1.573H3.57c-.866 0-1.57-.706-1.57-1.574v-3.76c0-.867.704-1.573 1.57-1.573zm0 1.196H3.57c-.205 0-.371.167-.371.373v3.76c0 .205.166.372.371.372h3.752c.206 0 .372-.167.372-.373v-3.76c0-.205-.166-.372-.372-.372zm18.052 2.966c.333 0 .597.27.602.603 0 .333-.27.603-.602.603H11.896c-.332 0-.601-.27-.601-.603 0-.334.269-.603.601-.603zm0-2.623c.333 0 .597.27.602.603 0 .334-.27.603-.602.603H11.896c-.332 0-.601-.27-.601-.603 0-.333.269-.603.601-.603zm-18.052-8.887c.206 0 .372.167.372.373v3.76c0 .205-.166.372-.372.372H3.57c-.205 0-.371-.167-.371-.373v-3.76c0-.205.166-.372.371-.372h3.752zm18.052 2.96c.333 0 .597.27.602.604 0 .333-.27.603-.602.603H11.896c-.332 0-.601-.27-.601-.603 0-.334.269-.603.601-.603zm0-2.617c.333 0 .602.27.602.603 0 .333-.27.603-.602.603H11.896c-.332 0-.601-.27-.601-.603 0-.333.269-.603.601-.603z" transform="translate(-154 -1259) translate(0 728) translate(152 346)"/>
                </g>
            </g>
        </g>
    </g>
</svg>
