<svg xmlns="http://www.w3.org/2000/svg" width="32" height="32" viewBox="0 0 32 32">
    <g fill="none" fill-rule="evenodd">
        <g>
            <g>
                <g>
                    <g>
                        <g>
                            <path fill="#FFF" d="M14.58 19.574c.6 1.37-.022 2.97-1.394 3.57-1.37.602-2.968-.022-3.57-1.394-.16-.365-.226-.748-.222-1.124l4.508-1.977c.28.25.516.557.677.925z" transform="translate(-913 -172) translate(904 154) translate(0 10) translate(9 8) translate(6 4)"/>
                            <path stroke="#FFF" stroke-width="2" d="M3.513 1.144c.432-.19.9-.186 1.307-.027.409.159.756.474.946.906.078.177.123.36.139.541.222.008.443.025.663.05 2.648.303 5.16 1.845 6.47 4.477-.021-.046 2.612 5.49 5.299 5.936.176.015.508.021.797.182.261.355.155.537.051.697-.216.333-.587.626-1.044.823h0L3.838 20.893c-.469.202-.962.275-1.366.202-.322-.761-.163-.961-.14-.987 1.6-2.442-.763-8.113-.763-8.113-.527-1.33-.68-2.674-.491-3.896.193-1.25.745-2.366 1.582-3.244.174-.183.36-.354.554-.513-.14-.172-.266-.374-.373-.603-.275-.584-.34-1.148-.199-1.623.131-.439.442-.784.871-.972z" transform="translate(-913 -172) translate(904 154) translate(0 10) translate(9 8) translate(6 4)"/>
                        </g>
                    </g>
                </g>
            </g>
        </g>
    </g>
</svg>
