<svg xmlns="http://www.w3.org/2000/svg" width="24" height="24" viewBox="0 0 24 24">
    <g fill="none" fill-rule="evenodd">
        <g fill="currentColor" fill-rule="nonzero">
            <g>
                <g>
                    <path d="M25.72 251.755c-.318-.476-.838-.755-1.396-.755-.221 0-.437.044-.648.132l-15.274 6.28c-.657.27-1.064.902-1.044 1.613.02.71.47 1.313 1.142 1.544l5.917 2.02 2.024 5.916c.235.691.863 1.142 1.598 1.142.696 0 1.294-.402 1.559-1.044l6.28-15.275c.215-.529.161-1.103-.157-1.573zm-13.544 19.181c.236-.235.613-.235.849 0 .235.236.235.613 0 .848l-3.04 3.04c-.117.117-.27.176-.426.176-.157 0-.309-.059-.427-.176-.235-.23-.235-.613.005-.849zm-1.161-5.794c.235-.235.612-.235.848 0 .235.235.235.613 0 .848l-8.397 8.402c-.118.118-.27.177-.427.177-.157 0-.309-.06-.426-.177-.236-.235-.236-.613 0-.848zm13.309-12.941c.156 0 .308.083.401.225.064.094.123.246.04.447l-6.285 15.274c-.112.27-.348.3-.446.3-.083 0-.358-.025-.46-.33l-2.118-6.195c-.059-.177-.196-.314-.373-.373l-6.196-2.118c-.294-.103-.323-.367-.328-.446 0-.078.01-.343.299-.465l15.274-6.28c.064-.024.128-.039.192-.039zM5.22 263.985c.235-.235.612-.235.848 0 .235.236.235.613 0 .848l-3.04 3.04c-.117.117-.27.176-.426.176-.157 0-.309-.059-.427-.176-.235-.236-.235-.613 0-.848z" transform="translate(-154 -1325) translate(0 728) translate(152 346)"/>
                </g>
            </g>
        </g>
    </g>
</svg>
