<svg xmlns="http://www.w3.org/2000/svg" width="32" height="32" viewBox="0 0 32 32">
    <g fill="none" fill-rule="evenodd">
        <g fill="currentColor" fill-rule="nonzero">
            <g>
                <g>
                    <g>
                        <path d="M17.172 3c.795 0 1.558.316 2.12.879l5.83 5.828c.562.563.878 1.326.878 2.121V26c0 1.657-1.343 3-3 3H9c-1.657 0-3-1.343-3-3V6c0-1.657 1.343-3 3-3zM17 5H9c-.552 0-1 .448-1 1v20c0 .552.448 1 1 1h14c.552 0 1-.448 1-1V12h-4c-1.598 0-2.904-1.249-2.995-2.824L17 9V5zm-5.242 14.331c1.05 0 1.624.707 1.624 1.554 0 .84-.574 1.533-1.624 1.533h-1.134v1.036c0 .329-.266.609-.602.609-.336 0-.602-.28-.602-.609v-3.486c0-.413.224-.637.637-.637zm10.227 0c.273 0 .504.231.504.511 0 .273-.231.504-.504.504h-1.771v.777h1.722c.273 0 .504.231.504.511s-.231.511-.504.511h-1.722v1.309c0 .329-.266.609-.602.609-.336 0-.602-.28-.602-.609v-3.486c0-.413.224-.637.637-.637zm-6.104 0c1.47 0 2.527.882 2.527 2.331 0 1.449-1.057 2.338-2.52 2.338h-1.33c-.413 0-.637-.224-.637-.637v-3.395c0-.413.224-.637.637-.637zm.007 1.05h-.763v2.569h.756c.819 0 1.295-.595 1.295-1.288 0-.721-.434-1.281-1.288-1.281zm-4.291-.035h-.973v1.05h.973c.322 0 .56-.203.56-.518 0-.322-.238-.532-.56-.532zM19 6.414V9c0 .513.386.936.883.993L20 10h2.586L19 6.414z" transform="translate(-379 -3020) translate(0 1993) translate(352 939) translate(27 88)"/>
                    </g>
                </g>
            </g>
        </g>
    </g>
</svg>
