<svg xmlns="http://www.w3.org/2000/svg" width="29" height="24" viewBox="0 0 29 24">
    <g fill="none" fill-rule="evenodd">
        <g fill="currentColor" fill-rule="nonzero">
            <g>
                <g>
                    <path d="M26.263 119c1.235 0 2.237 1.004 2.237 2.24v14.793c0 1.237-1.002 2.24-2.237 2.24H13.068c-.396 0-.717-.309-.717-.706 0-.396.32-.717.717-.717h13.195c.449 0 .81-.362.81-.811V121.24c0-.45-.361-.811-.81-.811H2.236c-.448 0-.81.361-.81.81v14.787c0 .45.362.811.81.811H3.99c.396 0 .716.321.716.718v3.553l4.048-4.055c.279-.28.727-.28 1.007 0 .28.28.28.73 0 1.01l-4.595 4.61c-.21.215-.495.326-.78.326-.146 0-.285-.03-.425-.088-.414-.169-.681-.571-.681-1.02v-3.613H2.236c-1.234 0-2.236-1.003-2.236-2.24V121.24C0 120.004 1.002 119 2.236 119zM14.25 131.902c.396 0 .716.32.716.717 0 .397-.32.718-.716.718H5.13c-.396 0-.716-.321-.716-.718 0-.397.32-.717.716-.717zm9.12-3.846c.395 0 .715.321.715.718 0 .397-.32.718-.716.718H5.13c-.396 0-.716-.321-.716-.718 0-.397.32-.718.716-.718zm0-3.845c.395 0 .715.32.715.718 0 .396-.32.717-.716.717H5.13c-.396 0-.716-.32-.716-.717 0-.397.32-.718.716-.718z" transform="translate(-152 -1193) translate(0 728) translate(152 346)"/>
                </g>
            </g>
        </g>
    </g>
</svg>
