<svg xmlns="http://www.w3.org/2000/svg" width="34" height="28" viewBox="0 0 34 28">
    <g fill="none" fill-rule="evenodd">
        <g fill="currentColor" fill-rule="nonzero">
            <g>
                <g>
                    <path d="M30.7 152c1.444 0 2.615 1.17 2.615 2.614v17.273c0 1.443-1.17 2.614-2.614 2.614h-1.22v4.213c0 .524-.312.993-.796 1.19-.163.062-.333.096-.497.096-.333 0-.667-.136-.912-.381l-5.372-5.37c-.327-.327-.327-.85 0-1.178.327-.326.85-.326 1.178 0l4.732 4.73v-4.144c0-.463.374-.837.837-.837h2.056c.525 0 .947-.422.947-.946v-17.26c0-.525-.422-.947-.947-.947H2.615c-.525 0-.947.422-.947.947v17.246c0 .524.422.946.947.946h15.428c.463 0 .838.374.838.837 0 .463-.375.837-.838.837v.007H2.615c-1.444 0-2.615-1.17-2.615-2.613v-17.26C0 153.17 1.171 152 2.615 152zm-3.376 15.048c.463 0 .837.374.837.837 0 .463-.374.837-.837.837H16.66c-.463 0-.83-.374-.837-.837 0-.463.374-.837.837-.837zm0-4.485c.463 0 .837.374.837.837 0 .463-.374.837-.837.837H5.999c-.463 0-.838-.374-.838-.837 0-.463.375-.837.838-.837zm0-4.485c.463 0 .837.374.837.837 0 .463-.374.837-.837.837H5.999c-.463 0-.838-.374-.838-.837 0-.463.375-.837.838-.837z" transform="translate(-560 -1226) translate(0 728) translate(560 346)"/>
                </g>
            </g>
        </g>
    </g>
</svg>
