<svg xmlns="http://www.w3.org/2000/svg" width="28" height="29" viewBox="0 0 28 29">
    <g fill="none" fill-rule="evenodd">
        <g fill="currentColor" fill-rule="nonzero">
            <g>
                <g>
                    <path d="M19.068 87.4l-2.745-.199-1.036-2.553c-.216-.529-.72-.87-1.287-.87-.568 0-1.07.341-1.287.87L11.677 87.2l-2.745.2c-.567.041-1.041.417-1.217.957-.175.54-.006 1.127.427 1.497l2.101 1.779-.655 2.677c-.106.417-.012.851.251 1.186.264.34.673.54 1.095.54.257 0 .509-.07.731-.212L14 94.37l2.335 1.456c.222.141.474.212.731.212.422 0 .831-.2 1.095-.54.263-.335.357-.77.251-1.186l-.655-2.677 2.1-1.78c.434-.363.603-.95.428-1.496-.176-.54-.656-.916-1.217-.957zM13.906 76c.673 0 1.323.294 1.773.798l.58.646c.263.3.714.4 1.082.24l.796-.34c.299-.129.62-.193.942-.193 1.06 0 2.002.71 2.294 1.726l.24.833c.111.394.462.67.872.687l.872.03c.679.029 1.316.352 1.75.886.427.534.608 1.227.497 1.902l-.146.857c-.065.405.128.805.491.998l.76.411c.604.323 1.037.893 1.195 1.562.158.67.017 1.374-.375 1.931l-.497.71c-.24.335-.234.787.006 1.116l.503.71c.404.552.55 1.257.404 1.926-.147.67-.574 1.245-1.17 1.58l-.756.422c-.357.194-.55.599-.474 1.004l.158.851c.123.675-.046 1.368-.468 1.908-.421.54-1.053.869-1.738.91l-.86.047c-.404.023-.755.305-.86.699l-.228.833c-.281 1.04-1.23 1.761-2.3 1.761-.31 0-.614-.064-.907-.182l-.802-.328c-.374-.153-.819-.047-1.082.258l-.562.663c-.456.523-1.112.822-1.802.822-.673 0-1.323-.287-1.773-.792l-.58-.646c-.263-.3-.714-.4-1.082-.24l-.796.34c-.299.129-.62.193-.942.193l-.176-.006c-.986-.073-1.842-.76-2.118-1.72l-.24-.833c-.111-.393-.462-.67-.872-.687l-.866-.035c-.679-.03-1.317-.353-1.75-.887-.427-.534-.608-1.227-.497-1.902l.146-.857c.065-.405-.128-.804-.491-.998l-.761-.41C.693 94.873.26 94.31.102 93.64c-.158-.669-.017-1.373.375-1.931L.974 91c.24-.335.234-.787-.006-1.116l-.509-.698c-.404-.552-.55-1.257-.404-1.926.147-.67.574-1.245 1.17-1.58l.756-.422c.357-.2.55-.605.474-1.01l-.158-.85c-.123-.676.046-1.369.468-1.909.421-.54 1.053-.869 1.738-.91l.86-.053c.404-.023.755-.305.86-.698l.228-.834c.281-1.04 1.23-1.761 2.3-1.761.31 0 .614.064.907.182l.802.329c.374.152.819.047 1.082-.259l.562-.663c.456-.523 1.112-.822 1.802-.822zm.006 1.444c-.28 0-.538.118-.72.329l-.567.652c-.457.522-1.112.821-1.802.821-.31 0-.615-.064-.907-.181l-.802-.33c-.117-.046-.24-.07-.363-.07-.427 0-.807.288-.919.705l-.228.833c-.275.993-1.141 1.697-2.165 1.756l-.86.053c-.275.017-.521.146-.69.364-.17.217-.24.487-.188.763l.146.84c.188 1.009-.292 2.025-1.188 2.524l-.754.422c-.24.135-.41.358-.469.629-.064.27-.005.546.158.769l.51.698c.608.834.614 1.955.023 2.795l-.497.71c-.158.223-.211.499-.147.77.059.27.228.492.474.621l.76.411c.908.488 1.4 1.491 1.23 2.507l-.14.857c-.047.27.023.54.198.758.17.217.422.34.697.352l.866.035c1.024.047 1.902.74 2.188 1.726l.24.834c.117.405.492.687.913.687.129 0 .252-.024.375-.077l.795-.34c.299-.13.615-.194.942-.194.68 0 1.329.294 1.78.798l.579.646c.181.206.433.317.708.317.28 0 .538-.117.72-.329l.567-.651c.457-.523 1.112-.822 1.802-.822.31 0 .615.064.907.182l.802.329c.117.047.24.07.363.07.427 0 .807-.288.919-.704l.228-.834c.275-.992 1.141-1.697 2.165-1.755l.86-.047c.275-.018.521-.147.69-.364.17-.218.24-.493.188-.764l-.158-.85c-.187-1.01.293-2.026 1.188-2.525l.755-.423c.24-.135.41-.358.468-.628.058-.276 0-.546-.14-.763l-.51-.699c-.608-.833-.614-1.955-.023-2.794l.497-.71c.158-.224.211-.5.147-.77-.065-.27-.234-.493-.48-.622l-.76-.411c-.908-.487-1.4-1.491-1.23-2.507l.14-.857c.047-.27-.023-.54-.198-.757-.17-.217-.422-.34-.697-.352l-.866-.036c-1.024-.047-1.902-.74-2.188-1.726l-.24-.833c-.117-.405-.492-.687-.913-.687-.129 0-.252.023-.375.076l-.795.34c-.299.13-.615.194-.942.194-.68 0-1.329-.293-1.78-.798l-.579-.646c-.181-.205-.433-.317-.708-.317zm.088 7.85l1.164 2.864c.106.253.34.429.615.446l3.072.223-2.358 1.997c-.21.176-.299.457-.234.722l.737 3-2.616-1.633c-.234-.146-.526-.146-.755 0l-2.621 1.644.743-3.017c.064-.264-.023-.546-.234-.722l-2.358-1.996 3.072-.223c.27-.018.509-.194.614-.447L14 85.293z" transform="translate(-968 -1150) translate(0 728) translate(968 346)"/>
                </g>
            </g>
        </g>
    </g>
</svg>
