<svg xmlns="http://www.w3.org/2000/svg" width="32" height="32" viewBox="0 0 32 32">
    <g fill="none" fill-rule="evenodd">
        <g>
            <g>
                <g>
                    <g>
                        <path fill="#FFF" d="M23.333 5C25.358 5 27 6.642 27 8.667v14.666C27 25.358 25.358 27 23.333 27H8.667C6.642 27 5 25.358 5 23.333c0-.675.547-1.222 1.222-1.222h2.445V8.667C8.667 6.642 10.308 5 12.333 5zm0 2.444h-11c-.675 0-1.222.548-1.222 1.223V22.11h9.778c.675 0 1.222.547 1.222 1.222 0 .675.547 1.223 1.222 1.223.675 0 1.223-.548 1.223-1.223V8.667c0-.675-.548-1.223-1.223-1.223zM13.223 17.5c.674 0 1.221.547 1.221 1.222 0 .675-.547 1.222-1.222 1.222l-.125-.006c-.616-.062-1.097-.583-1.097-1.216 0-.675.547-1.222 1.222-1.222zm8.815.3c.675 0 1.222.448 1.222 1s-.547 1-1.222 1h-4.816c-.675 0-1.222-.448-1.222-1s.547-1 1.222-1zm-8.816-4.3c.675 0 1.222.547 1.222 1.222 0 .675-.547 1.222-1.222 1.222l-.125-.006c-.616-.062-1.097-.583-1.097-1.216 0-.675.547-1.222 1.222-1.222zm8.816.3c.675 0 1.222.448 1.222 1s-.547 1-1.222 1h-4.816c-.675 0-1.222-.448-1.222-1s.547-1 1.222-1zm-8.816-4.3c.675 0 1.222.547 1.222 1.222 0 .675-.547 1.222-1.222 1.222l-.125-.006c-.616-.062-1.097-.583-1.097-1.216 0-.675.547-1.222 1.222-1.222zm8.816.3c.675 0 1.222.448 1.222 1s-.547 1-1.222 1h-4.816c-.675 0-1.222-.448-1.222-1s.547-1 1.222-1z" transform="translate(-911 -518) translate(904 154) translate(0 10) translate(7 354)"/>
                    </g>
                </g>
            </g>
        </g>
    </g>
</svg>
