<?xml version="1.0" encoding="UTF-8"?>
<svg xmlns="http://www.w3.org/2000/svg" width="207.483mm" height="90.866mm" viewBox="0 0 588.14 257.574">
  <title>Asset 1</title>
  <g id="b700107c-f86d-420f-8112-32ca5f0b1422" data-name="Layer 2">
    <g id="ea6e9f3a-9b05-4c18-b8bb-8aa94c1e3fcf" data-name="Layer 1">
      <g>
        <g>
          <path d="M0,39.58V2.545H40.993V39.58ZM.85,203.268V53.715h39.3V203.268Z" style="fill: #3e3e3f"/>
          <path d="M94.749,187.436v66.72h-39.3V53.715h39.3l3.959,10.178C109.732,54.846,125,51.17,136.591,51.17c49.474,0,74.919,32.512,74.919,77.18,0,48.06-29.968,77.463-74.919,77.463C118.779,205.813,104.928,199.028,94.749,187.436Zm-3.11-59.086c0,23.748,15.832,44.669,42.125,44.669,27.706,0,38.448-22.051,38.448-44.669,0-23.748-12.44-44.668-38.448-44.668C106.341,83.682,91.639,104.6,91.639,128.35Z" style="fill: #3e3e3f"/>
          <path d="M274.83,86.227v67.284c0,7.633,0,19.508,18.941,19.508,5.654,0,16.962-2.544,16.962-2.544v32.793a254.933,254.933,0,0,1-33.642,2.545c-35.055,0-40.993-21.2-40.993-53.15V86.227H209.523V53.715H236.1V2.545H274.83v51.17h35.9V86.227Z" style="fill: #3e3e3f"/>
          <path d="M322.966,39.58V2.545h40.993V39.58Zm.847,163.688V53.715h39.3V203.268Z" style="fill: #3e3e3f"/>
          <path d="M585.638,165.1v40.711c-19.225,0-37.036-4.524-53.15-17.811-15.831,11.308-35.056,17.811-56.824,17.811C417.991,205.813,377,159.73,377,102.907S417.991,0,475.664,0s98.665,46.081,98.665,102.907c0,20.355-5.089,39.014-14.417,54.846C565.565,162.841,571.22,164.82,585.638,165.1Zm-109.974,4.525a55.608,55.608,0,0,0,33.924-11.31c-8.481-10.461-20.637-13-35.056-13.287V104.32c20.639,0,40.428,5.372,56.826,18.942a95.576,95.576,0,0,0,2.261-20.355c0-36.753-22.9-66.72-57.955-66.72s-57.957,29.967-57.957,66.72S440.607,169.627,475.664,169.627Z" style="fill: #3e3e3f"/>
        </g>
        <rect x="384.916" y="223.999" width="203.224" height="33.575" style="fill: #7fcacd"/>
      </g>
    </g>
  </g>
</svg>
